<svg xmlns="http://www.w3.org/2000/svg" version="1.0" viewBox="0 0 2600.000000 2600.000000" preserveAspectRatio="xMidYMid meet">
<metadata fill="#e91e63">
Created by potrace 1.15, written by Peter Selinger 2001-2017
</metadata>
<g transform="translate(0.000000,2600.000000) scale(0.100000,-0.100000)" fill="#e91e63" stroke="none">
<path d="M11684 22432 c-42 -27 -70 -65 -78 -106 -4 -23 145 -1007 449 -2967 251 -1613 454 -2938 453 -2945 -4 -16 -3928 1309 -3945 1332 -7 9 -318 553 -692 1209 -375 656 -689 1202 -698 1213 -10 12 -290 167 -623 344 -589 315 -606 323 -662 323 -85 0 -146 -53 -155 -136 -3 -32 56 -333 216 -1099 121 -580 219 -1056 218 -1057 -2 -1 -52 14 -112 33 -548 173 -949 265 -1103 250 -77 -7 -145 -35 -168 -70 -21 -34 -44 -127 -44 -187 -1 -280 226 -784 580 -1288 659 -939 1610 -1777 2430 -2139 94 -42 1963 -677 6015 -2045 3234 -1092 5981 -2017 6105 -2056 1185 -371 2016 -508 2433 -402 308 79 398 282 286 646 -223 726 -1384 1957 -2334 2474 -127 69 -177 86 -1940 682 l-1811 611 -1338 3101 c-736 1706 -1348 3112 -1359 3124 -12 12 -463 280 -1002 594 -929 543 -983 573 -1035 576 -42 3 -62 -1 -86 -15z m-549 -6409 c250 -84 301 -119 366 -243 34 -67 39 -204 9 -282 -28 -75 -93 -146 -172 -188 -51 -27 -77 -34 -138 -38 -72 -4 -86 -1 -280 63 -113 37 -224 78 -246 91 -60 34 -130 116 -154 182 -31 82 -25 215 14 290 34 67 91 124 157 157 117 60 188 55 444 -32z m1577 -532 c216 -73 261 -96 317 -156 69 -74 96 -143 96 -245 0 -76 -3 -92 -32 -151 -59 -120 -169 -195 -300 -206 -65 -5 -79 -2 -284 66 -228 75 -287 105 -339 171 -58 73 -75 125 -75 230 0 84 3 102 28 152 35 71 92 130 157 163 121 61 192 57 432 -24z m1603 -541 c99 -35 197 -71 218 -82 57 -29 125 -101 155 -166 23 -49 27 -70 27 -152 0 -83 -3 -102 -28 -151 -34 -70 -110 -142 -185 -177 -46 -21 -72 -26 -137 -26 -72 0 -98 7 -274 67 -216 75 -260 97 -315 158 -64 70 -90 140 -91 239 0 73 4 94 28 146 32 69 100 141 165 175 112 57 198 51 437 -31z m1593 -539 c111 -38 217 -79 236 -90 56 -35 123 -117 146 -179 31 -82 26 -205 -12 -282 -33 -68 -91 -128 -160 -165 -45 -25 -67 -30 -143 -33 -90 -4 -92 -4 -281 61 -105 36 -210 75 -233 86 -62 32 -119 94 -153 168 -58 122 -35 276 54 378 75 85 159 124 274 125 61 0 95 -9 272 -69z m1599 -540 c217 -75 274 -105 325 -174 55 -75 71 -124 72 -217 1 -76 -3 -92 -31 -152 -61 -129 -168 -200 -310 -207 -79 -3 -89 -1 -280 64 -109 37 -216 78 -238 90 -56 32 -109 90 -142 155 -25 50 -28 65 -28 155 0 93 2 104 32 161 18 35 54 81 83 107 69 62 134 86 235 86 74 1 96 -5 282 -68z m2658 -898 c237 -80 489 -165 560 -189 167 -57 230 -97 381 -248 185 -185 282 -336 292 -453 4 -58 3 -64 -25 -92 -16 -16 -47 -34 -69 -40 -92 -26 -302 -2 -519 59 -180 50 -1267 419 -1311 445 -49 29 -116 100 -142 152 -67 131 -38 307 68 413 73 73 190 114 295 102 22 -3 234 -70 470 -149z" fill="#e91e63"/>
<path d="M9275 14470 c-324 -84 -546 -369 -547 -700 -1 -128 19 -216 72 -325 92 -190 258 -328 465 -386 112 -32 268 -32 380 0 207 58 373 196 465 386 53 108 72 197 72 325 -1 339 -231 626 -564 705 -88 21 -256 18 -343 -5z" fill="#e91e63"/>
<path d="M11130 13863 c-256 -39 -466 -197 -570 -427 -43 -95 -62 -186 -61 -301 0 -203 67 -362 216 -511 73 -74 106 -98 175 -132 219 -108 441 -110 655 -7 226 109 370 311 405 566 43 314 -154 648 -452 765 -114 45 -263 64 -368 47z" fill="#e91e63"/>
<path d="M3727 13273 c-4 -3 -7 -1160 -7 -2570 l0 -2563 -555 0 -555 0 0 -625 0 -625 10280 0 10280 0 0 625 0 625 -7705 0 -7705 0 0 1875 0 1875 -1110 0 -1110 0 -2 693 -3 692 -901 3 c-495 1 -904 -1 -907 -5z" fill="#e91e63"/>
<path d="M19204 11145 c-143 -31 -265 -98 -368 -201 -268 -267 -288 -683 -47 -980 96 -118 260 -217 413 -248 388 -80 765 160 858 546 96 399 -160 798 -565 883 -86 18 -209 18 -291 0z" fill="#e91e63"/>
</g>
</svg>