<svg xmlns="http://www.w3.org/2000/svg" version="1.0" viewBox="0 0 2600.000000 2600.000000" preserveAspectRatio="xMidYMid meet">
<metadata fill="#ffffff">
Created by potrace 1.15, written by Peter Selinger 2001-2017
</metadata>
<g transform="translate(0.000000,2600.000000) scale(0.100000,-0.100000)" fill="#ffffff" stroke="none">
<path d="M2632 22776 c-29 -7 -62 -22 -73 -32 -70 -64 -99 -242 -80 -489 77 -964 640 -2652 1427 -4276 798 -1648 1785 -3190 2892 -4517 l144 -173 359 -1907 c197 -1048 359 -1909 359 -1913 0 -3 -28 7 -62 24 -173 82 -401 103 -589 54 -287 -75 -518 -288 -613 -568 -89 -262 -47 -552 116 -792 22 -32 577 -604 1253 -1290 1209 -1226 1215 -1232 1215 -1272 0 -57 26 -149 57 -207 33 -61 135 -157 197 -187 142 -69 303 -67 440 7 62 33 909 860 961 938 101 151 103 361 5 514 -79 123 -228 209 -365 210 -34 0 -47 7 -80 40 l-39 40 134 134 c74 74 506 499 959 945 l823 811 102 -56 c178 -98 587 -298 731 -359 77 -32 144 -62 149 -67 5 -4 273 -530 596 -1169 l587 -1163 -38 -60 c-92 -143 -134 -314 -126 -500 6 -138 26 -218 86 -341 221 -460 821 -621 1251 -335 57 37 290 261 921 882 466 458 861 847 880 865 l34 32 0 -237 c0 -258 12 -353 74 -587 71 -267 229 -623 391 -880 225 -356 538 -711 824 -934 561 -438 1585 -953 2799 -1407 447 -167 1015 -348 1219 -388 81 -16 97 -16 214 -2 70 9 129 18 131 20 15 14 -267 909 -449 1424 -528 1500 -1060 2577 -1520 3078 -382 415 -897 773 -1374 954 -329 125 -581 175 -889 174 l-190 0 355 351 c195 193 586 578 867 856 282 277 535 533 563 569 194 256 226 619 81 909 -193 382 -634 564 -1042 430 -66 -22 -166 -69 -209 -99 -25 -17 -25 -17 -1195 615 l-1170 633 -61 144 c-79 187 -212 467 -308 647 -42 79 -76 144 -76 145 0 4 1797 1774 1860 1832 l61 57 33 -32 c28 -27 35 -42 40 -93 4 -33 15 -87 26 -119 71 -229 319 -365 555 -304 125 33 146 50 609 507 240 237 449 449 465 472 146 214 83 517 -137 657 -58 36 -159 69 -217 69 l-42 0 -1209 1227 c-665 674 -1231 1244 -1257 1265 -205 162 -504 225 -752 159 -179 -47 -286 -109 -415 -240 -110 -112 -163 -198 -211 -341 -27 -81 -32 -114 -36 -226 -6 -154 10 -253 62 -381 18 -46 29 -83 25 -83 -5 0 -863 174 -1907 386 l-1898 386 -75 65 c-1050 902 -2130 1662 -3360 2365 -709 406 -1538 819 -2275 1136 -1149 493 -2327 868 -3080 982 -178 27 -439 35 -513 16z m370 -382 c606 -84 1754 -445 2823 -889 232 -96 706 -304 718 -315 7 -6 -2490 -2476 -2502 -2474 -8 1 -132 287 -258 594 -366 894 -678 1857 -827 2552 -64 296 -99 548 -78 548 6 0 62 -7 124 -16z m4322 -1582 c1467 -745 2752 -1584 3947 -2578 l196 -163 -19 -73 c-30 -111 -20 -321 21 -483 91 -362 269 -752 574 -1260 538 -898 1296 -1854 2068 -2610 670 -656 1195 -1002 1550 -1022 116 -7 177 6 255 53 31 19 58 34 59 34 1 0 50 -96 108 -212 113 -229 197 -415 268 -596 l44 -112 1150 -622 c633 -341 1156 -624 1163 -627 8 -5 -659 -668 -1869 -1862 -1036 -1019 -1980 -1950 -2099 -2066 l-218 -213 -580 1153 c-423 841 -587 1155 -604 1165 -13 7 -95 42 -183 78 -170 70 -449 202 -651 310 l-124 65 30 41 c95 131 90 339 -14 590 -364 881 -2108 2527 -3648 3444 -464 276 -897 465 -1204 524 -118 22 -280 26 -365 9 -94 -20 -88 -23 -190 101 -597 725 -1196 1581 -1718 2453 -311 521 -551 963 -848 1563 l-203 411 257 256 c502 498 2468 2436 2472 2436 2 1 171 -84 375 -187z m9305 -2497 c142 -34 102 3 1164 -1074 539 -548 1064 -1080 1166 -1184 l186 -187 -210 -211 c-116 -116 -267 -264 -337 -330 l-126 -120 -1156 1173 c-636 645 -1168 1191 -1183 1213 -61 90 -89 215 -72 330 26 186 171 345 355 389 78 19 135 19 213 1z m-2614 -945 l2159 -439 94 -93 c314 -312 1617 -1642 1617 -1651 0 -20 -2183 -2167 -2203 -2167 -72 0 -253 86 -432 205 -858 574 -2076 1951 -2840 3210 -315 519 -530 989 -584 1274 -21 109 -21 113 7 106 12 -3 994 -203 2182 -445z m5567 -1737 c10 -9 18 -26 18 -39 0 -32 -824 -844 -857 -844 -28 0 -63 33 -63 60 0 23 17 40 481 499 367 362 374 367 421 324z m-12053 -2260 c984 -282 2880 -1689 3934 -2920 356 -417 617 -833 617 -986 0 -13 -2179 -2168 -2198 -2175 -7 -2 -1699 1709 -1714 1733 -7 11 -828 4351 -828 4375 0 15 86 3 189 -27z m12128 -2818 c59 -7 138 -44 199 -92 179 -143 218 -422 86 -611 -29 -41 -4365 -4325 -4677 -4621 -111 -105 -177 -135 -315 -139 -122 -4 -183 12 -275 74 -135 89 -201 226 -193 403 3 83 8 105 37 166 29 60 59 95 210 246 168 169 4176 4116 4448 4382 147 143 212 182 325 196 62 8 72 7 155 -4z m-12272 -1414 c30 -11 77 -34 104 -53 27 -18 571 -561 1207 -1207 l1157 -1174 -334 -328 c-184 -180 -337 -327 -341 -326 -20 6 -2318 2350 -2345 2392 -134 213 -75 502 132 639 126 84 282 105 420 57z m11470 -1751 c524 -61 1116 -359 1600 -809 129 -120 218 -219 320 -356 375 -505 781 -1361 1220 -2571 95 -261 346 -1007 340 -1012 -2 -2 -131 39 -287 91 -1176 393 -2342 922 -2998 1360 -203 136 -345 251 -495 401 -261 262 -462 535 -620 846 -364 716 -376 1390 -33 1765 138 150 339 250 573 284 85 12 275 13 380 1z m-8567 -912 c7 -7 12 -25 12 -42 0 -33 21 -11 -521 -545 -318 -312 -330 -322 -371 -284 -47 42 -43 46 395 477 360 354 416 406 443 406 16 0 35 -5 42 -12z" fill="#ffffff"/>
<path d="M6905 19306 c-299 -44 -507 -146 -690 -338 -416 -437 -416 -1190 0 -2099 214 -468 575 -994 991 -1444 908 -982 1977 -1605 2874 -1676 303 -24 585 31 803 155 145 83 274 205 364 344 79 122 150 326 173 497 22 167 12 429 -26 630 -183 987 -985 2155 -2059 3003 -628 495 -1312 825 -1900 917 -139 22 -417 28 -530 11z m450 -411 c407 -61 862 -253 1335 -562 371 -243 658 -481 995 -824 295 -301 511 -566 731 -899 429 -651 657 -1317 605 -1767 -43 -372 -229 -591 -566 -669 -118 -28 -379 -26 -536 4 -581 109 -1254 472 -1899 1026 -140 120 -522 503 -643 645 -497 582 -853 1210 -997 1756 -52 198 -64 285 -64 480 0 154 3 193 22 271 39 157 124 299 232 387 49 40 172 107 234 127 126 40 374 51 551 25z" fill="#ffffff"/>
<path d="M18535 7095 c-297 -66 -488 -246 -567 -536 -30 -110 -32 -336 -4 -474 44 -222 156 -483 299 -698 278 -415 557 -649 1192 -997 506 -278 1303 -620 1595 -684 63 -14 96 -15 208 -7 74 5 136 11 138 14 8 8 -192 565 -311 867 -360 911 -705 1545 -1014 1863 -334 345 -757 585 -1145 652 -107 18 -309 18 -391 0z m420 -425 c269 -72 555 -249 800 -495 188 -188 325 -397 539 -825 167 -334 329 -706 462 -1057 l24 -63 -53 21 c-360 142 -883 387 -1182 555 -277 155 -504 313 -644 448 -411 399 -646 975 -513 1260 46 97 104 146 207 173 73 19 260 10 360 -17z" fill="#ffffff"/>
</g>
</svg>