<?xml version="1.0" encoding="UTF-8" standalone="no"?> <svg id="Layer_1" data-name="Layer 1" xmlns="http://www.w3.org/2000/svg" viewBox="0 0 64 64"><rect x="1" y="48.25" width="16" height="1.5" style="fill:#a3b3cc"/><rect x="5" y="53.25" width="12" height="1.5" style="fill:#a3b3cc"/><rect x="9" y="58.25" width="8" height="1.5" style="fill:#a3b3cc"/><polygon points="47 22 47 28 41 28 41 34 53 34 53 22 47 22" style="fill:#ebc96a"/><rect x="47" y="28" width="6" height="6" style="fill:#d9aa2a"/><rect x="41" y="28" width="6" height="6" style="fill:#f2c23d"/><polygon points="47 1 32 9 32 35 37 35 37 16 57 16 57 35 62 35 62 9 47 1" style="fill:#637999"/><rect x="39" y="11.25" width="16" height="1.5" style="fill:#b8cae6"/><rect x="42" y="7.25" width="10" height="1.5" style="fill:#b8cae6"/><rect x="19.28565" y="44.13352" width="18" height="18" style="fill:#f2c23d"/><polygon points="24.786 44.134 24.786 53.134 28.286 51.134 31.786 53.134 31.786 44.134 24.786 44.134" style="fill:#a68a3c"/></svg>