<svg xmlns="http://www.w3.org/2000/svg" version="1.0" viewBox="0 0 2600.000000 2600.000000" preserveAspectRatio="xMidYMid meet">
<metadata fill="#e91e63">
Created by potrace 1.15, written by Peter Selinger 2001-2017
</metadata>
<g transform="translate(0.000000,2600.000000) scale(0.100000,-0.100000)" fill="#e91e63" stroke="none">
<path d="M5442 19997 l-2512 -2332 635 -3 635 -2 0 -2585 0 -2585 1680 0 1680 0 0 1715 0 1715 1410 0 1410 0 0 -1715 0 -1715 670 0 670 0 0 2585 0 2585 637 2 637 3 -2514 2333 c-1382 1282 -2516 2332 -2519 2332 -3 0 -1137 -1050 -2519 -2333z" fill="#e91e63"/>
<path d="M15027 18733 l-1047 -1048 1050 -1050 1050 -1050 0 667 0 667 48 -5 c644 -62 1100 -184 1612 -431 237 -114 342 -174 560 -319 510 -339 916 -744 1254 -1254 147 -221 191 -297 305 -529 275 -560 426 -1162 450 -1791 l6 -175 753 -3 752 -2 0 57 c0 124 -21 446 -41 617 -178 1581 -969 3016 -2215 4017 -958 771 -2154 1236 -3376 1315 l-108 7 -2 678 -3 679 -1048 -1047z" fill="#e91e63"/>
<path d="M8010 13980 l0 -1490 958 2 957 3 3 1488 2 1487 -960 0 -960 0 0 -1490z" fill="#e91e63"/>
<path d="M16437 11033 c-4 -3 -7 -168 -7 -365 l0 -358 -1140 0 c-1074 0 -1141 -1 -1155 -17 -8 -10 -420 -576 -915 -1258 l-900 -1240 3 -1340 2 -1340 425 0 425 0 7 100 c43 614 513 1134 1122 1240 101 17 324 20 431 5 303 -43 628 -222 824 -454 202 -241 310 -501 330 -796 l6 -95 1720 0 1720 0 7 100 c39 574 450 1067 1015 1217 115 31 123 32 338 32 215 0 223 -1 338 -32 351 -93 660 -329 837 -639 100 -173 164 -380 177 -571 l8 -107 205 -3 c164 -2 217 0 266 13 84 22 151 75 189 150 l30 59 3 2727 c2 2713 2 2728 -18 2782 -27 73 -79 130 -148 164 l-57 28 -3041 3 c-1672 1 -3044 -1 -3047 -5z m-647 -2303 l0 -930 -1331 0 c-1064 0 -1329 3 -1322 13 6 6 297 408 648 892 351 484 651 897 667 918 l30 37 654 0 654 0 0 -930z" fill="#e91e63"/>
<path d="M14405 6214 c-366 -54 -669 -260 -837 -572 -49 -89 -97 -221 -120 -327 -16 -77 -16 -323 0 -400 99 -460 427 -789 887 -886 81 -18 313 -17 400 0 442 88 767 400 878 840 17 71 21 115 21 251 0 146 -4 176 -26 262 -109 405 -406 701 -806 804 -74 19 -129 26 -232 29 -74 2 -148 1 -165 -1z" fill="#e91e63"/>
<path d="M20565 6214 c-86 -13 -189 -40 -268 -70 -545 -209 -833 -814 -652 -1369 123 -376 429 -651 828 -742 99 -22 345 -22 444 0 348 80 616 289 769 602 101 209 134 419 99 645 -68 448 -393 801 -839 911 -79 19 -311 33 -381 23z" fill="#e91e63"/>
</g>
</svg>