<svg xmlns="http://www.w3.org/2000/svg" version="1.0" viewBox="0 0 2600.000000 2600.000000" preserveAspectRatio="xMidYMid meet">
<metadata fill="#e91e63">
Created by potrace 1.15, written by Peter Selinger 2001-2017
</metadata>
<g transform="translate(0.000000,2600.000000) scale(0.100000,-0.100000)" fill="#e91e63" stroke="none">
<path d="M7984 21459 c-561 -43 -1051 -427 -1229 -962 -76 -229 -69 -1 -72 -2429 l-3 -2178 -1364 0 c-1193 0 -1374 -2 -1446 -16 -457 -86 -803 -459 -860 -926 -8 -68 -10 -1184 -8 -4183 4 -3774 5 -4095 20 -4155 59 -229 145 -387 293 -535 138 -140 304 -234 507 -288 l83 -22 7135 0 7135 0 97 27 c406 112 706 434 783 841 13 69 15 340 15 2113 l0 2033 1433 4 c1411 3 1433 3 1527 24 293 65 528 191 730 393 202 202 327 434 392 730 l23 105 0 4080 c0 3881 -1 4085 -18 4175 -36 194 -122 401 -230 559 -29 42 -95 120 -147 175 -255 265 -559 407 -930 436 -141 12 -13722 10 -13866 -1z m13911 -764 c194 -41 370 -179 460 -360 59 -120 65 -164 65 -502 l0 -303 -7496 0 -7496 0 5 313 c5 350 8 373 78 508 48 91 119 174 204 234 75 54 131 80 227 105 71 18 224 19 6978 19 6052 1 6914 -1 6975 -14z m523 -5912 l-3 -2718 -22 -65 c-35 -100 -91 -188 -174 -270 -88 -88 -181 -141 -295 -170 -75 -19 -113 -20 -1465 -20 l-1389 0 -2 1738 -3 1737 -28 89 c-42 134 -82 221 -144 315 -141 211 -359 368 -618 443 l-80 23 -5382 3 -5383 2 0 805 0 805 7495 0 7495 0 -2 -2717z m-14788 -354 c128 -15 195 -35 305 -89 168 -84 292 -204 380 -372 l36 -68 -550 0 -551 0 0 -1375 0 -1375 -440 0 -440 0 0 1238 c0 681 -3 1422 -7 1645 l-6 407 594 0 c355 0 629 -4 679 -11z m-1640 -259 l0 -260 -360 0 -360 0 21 43 c87 169 221 302 393 389 75 38 233 86 284 88 l22 0 0 -260z m0 -890 l0 -260 -395 0 -395 0 0 260 0 260 395 0 395 0 0 -260z m2430 0 l0 -260 -395 0 -395 0 0 260 0 260 395 0 395 0 0 -260z m-2430 -900 l0 -260 -395 0 -395 0 0 260 0 260 395 0 395 0 0 -260z m2430 0 l0 -260 -395 0 -395 0 0 260 0 260 395 0 395 0 0 -260z m-2430 -891 l0 -262 -55 7 c-145 17 -331 107 -452 220 -94 87 -203 241 -203 286 0 7 116 10 355 10 l355 0 0 -261z m2350 251 c0 -46 -110 -200 -205 -287 -123 -114 -299 -200 -447 -218 l-58 -7 0 261 0 261 355 0 c239 0 355 -3 355 -10z m-2348 -2031 c116 -25 239 -109 258 -177 13 -47 13 -233 0 -266 -14 -38 -37 -32 -95 23 -138 131 -293 146 -409 40 -96 -88 -147 -226 -168 -455 -22 -239 11 -480 84 -617 105 -195 323 -222 505 -62 71 62 86 58 95 -25 11 -94 0 -209 -23 -247 -31 -51 -143 -116 -244 -143 -51 -13 -187 -13 -245 1 -165 38 -299 168 -379 369 -111 281 -116 777 -11 1101 108 334 358 515 632 458z m6771 -4 c108 -28 202 -88 234 -149 11 -20 18 -66 21 -131 5 -111 -9 -185 -34 -185 -9 0 -41 23 -71 51 -88 80 -143 104 -238 104 -91 0 -123 -13 -185 -75 -113 -113 -168 -344 -157 -649 9 -242 50 -387 135 -482 67 -75 109 -94 212 -94 98 0 147 20 244 100 59 48 80 55 90 29 12 -31 6 -244 -8 -277 -40 -96 -212 -177 -376 -177 -307 0 -501 222 -571 655 -20 120 -17 485 4 610 35 200 101 368 191 483 126 161 327 234 509 187z m-2504 -24 c11 -6 23 -26 26 -44 3 -17 4 -431 3 -919 -3 -837 -4 -888 -21 -905 -15 -15 -35 -18 -116 -18 -68 0 -103 4 -114 14 -16 12 -17 90 -17 937 0 690 3 925 12 930 39 24 184 27 227 5z m3612 -8 c15 -15 70 -222 234 -889 117 -478 216 -890 220 -915 10 -68 -10 -79 -138 -79 -135 0 -130 -6 -187 242 l-45 198 -252 0 c-231 0 -252 -1 -257 -17 -2 -10 -21 -90 -41 -178 -47 -211 -52 -224 -82 -236 -13 -5 -60 -9 -104 -9 -67 0 -82 3 -100 21 -17 17 -19 28 -13 62 10 64 423 1748 435 1780 7 17 21 29 38 33 14 3 31 8 36 10 6 2 61 2 123 1 97 -3 116 -6 133 -24z m-6851 6 c244 -39 371 -232 357 -543 -6 -146 -30 -229 -90 -317 -37 -54 -109 -118 -149 -132 -8 -2 2 -20 29 -50 67 -72 108 -170 194 -455 91 -299 100 -358 59 -379 -33 -17 -187 -17 -220 0 -22 11 -34 43 -102 277 -108 376 -127 420 -197 467 -27 18 -48 23 -102 23 l-69 0 0 -376 0 -375 -37 -15 c-46 -19 -181 -16 -206 5 -16 12 -17 89 -17 923 l0 909 25 24 24 25 218 0 c120 0 247 -5 283 -11z m1402 -11 c7 -14 12 -64 12 -128 0 -162 22 -150 -270 -150 l-244 0 2 -232 3 -233 205 -3 c178 -2 207 -4 218 -19 8 -11 12 -54 12 -123 0 -159 14 -150 -236 -150 l-204 0 2 -267 3 -268 248 -3 248 -2 9 -26 c13 -33 13 -205 0 -238 l-10 -26 -361 2 -362 3 -21 28 c-21 28 -21 32 -24 855 -2 455 0 856 3 891 5 48 13 70 30 87 l24 24 350 0 350 0 13 -22z m834 7 c305 -54 483 -300 525 -726 14 -144 7 -369 -16 -506 -59 -362 -232 -575 -509 -628 -54 -11 -144 -15 -301 -15 l-224 0 -20 26 c-21 27 -21 31 -21 921 l0 894 25 24 c24 25 24 25 238 25 149 0 242 -5 303 -15z m2194 -11 c13 -34 13 -240 0 -265 -10 -18 -23 -19 -185 -19 l-175 0 0 -772 c0 -425 -4 -778 -8 -785 -13 -20 -61 -33 -127 -33 -66 0 -114 13 -127 33 -4 7 -8 360 -8 785 l0 772 -175 0 -175 0 -10 26 c-13 34 -13 213 1 253 l11 31 484 0 484 0 10 -26z m3700 -9 c186 -72 282 -262 266 -530 -6 -114 -22 -178 -60 -256 -32 -63 -105 -143 -157 -169 l-36 -19 43 -45 c23 -25 59 -78 78 -118 44 -91 197 -597 199 -657 3 -60 -19 -71 -139 -71 -73 0 -96 4 -114 18 -16 13 -38 76 -91 262 -130 458 -156 500 -308 500 l-61 0 0 -367 c0 -203 -4 -373 -8 -380 -28 -44 -226 -44 -254 0 -4 7 -8 409 -8 895 0 938 0 933 47 961 12 8 96 10 273 8 253 -3 256 -4 330 -32z m1164 10 c202 -57 344 -206 419 -436 45 -138 60 -255 59 -474 -1 -294 -34 -464 -125 -640 -54 -104 -148 -200 -237 -244 -120 -58 -152 -63 -430 -68 l-255 -5 -25 27 -25 27 -3 861 c-2 474 0 877 3 896 4 18 18 44 31 58 l25 25 252 -5 c197 -3 265 -8 311 -22z" fill="#e91e63"/>
<path d="M13606 8939 c-48 -209 -91 -389 -93 -400 -5 -18 2 -19 187 -19 l192 0 -5 23 c-3 12 -45 192 -93 400 -49 207 -91 377 -94 377 -3 0 -45 -171 -94 -381z" fill="#e91e63"/>
<path d="M6730 9130 l0 -272 114 4 c109 3 117 5 158 33 24 17 53 49 65 70 31 58 45 155 32 234 -13 86 -43 137 -98 169 -39 23 -58 26 -158 30 l-113 5 0 -273z" fill="#e91e63"/>
<path d="M8950 8745 l0 -647 128 4 c112 3 134 6 183 30 110 51 176 144 220 313 22 81 24 110 24 305 0 235 -9 293 -66 417 -36 81 -114 164 -182 194 -43 19 -75 23 -179 27 l-128 4 0 -647z" fill="#e91e63"/>
<path d="M14770 9130 l0 -270 91 0 c51 0 110 6 133 12 90 27 146 126 146 260 0 95 -16 149 -57 197 -44 52 -105 71 -225 71 l-88 0 0 -270z" fill="#e91e63"/>
<path d="M15960 8744 l0 -646 128 4 c159 5 207 24 286 108 91 99 134 245 143 485 10 269 -36 463 -139 580 -76 86 -154 115 -315 115 l-103 0 0 -646z" fill="#e91e63"/>
</g>
</svg>