<svg xmlns="http://www.w3.org/2000/svg" version="1.0" viewBox="0 0 2604.000000 2604.000000" preserveAspectRatio="xMidYMid meet">
<metadata fill="#e91e63">
Created by potrace 1.13, written by Peter Selinger 2001-2015
</metadata>
<g transform="translate(0.000000,2604.000000) scale(0.100000,-0.100000)" fill="#e91e63" stroke="none">
<path d="M9510 20567 c-213 -72 -381 -304 -495 -681 -41 -136 -89 -364 -107 -508 l-12 -98 -30 -4 c-17 -3 -92 -10 -166 -16 -320 -27 -758 -94 -894 -137 -576 -179 -1294 -917 -2041 -2098 -123 -194 -308 -506 -383 -645 -30 -55 -65 -105 -82 -118 -160 -119 -673 -620 -906 -887 -880 -1007 -1394 -2015 -1533 -3007 -22 -157 -40 -464 -38 -642 l2 -108 -77 -27 c-438 -156 -643 -661 -439 -1086 131 -275 429 -457 726 -443 l70 3 28 -85 c196 -585 505 -1179 867 -1665 98 -133 280 -355 319 -389 11 -11 21 -22 21 -26 0 -4 -79 -63 -176 -131 l-175 -124 -86 -140 c-250 -407 -495 -896 -602 -1199 -17 -49 -50 -149 -71 -223 -50 -167 -107 -299 -225 -528 -120 -230 -148 -313 -143 -415 5 -97 25 -139 108 -220 101 -100 204 -153 710 -365 1005 -421 1806 -668 2235 -692 97 -5 128 -2 265 25 283 56 662 111 2345 337 1793 241 2654 364 3305 471 534 88 913 169 976 209 44 29 634 330 1739 890 1751 887 2716 1378 3640 1853 4063 2086 6128 3238 6225 3471 8 21 9 43 1 86 -35 189 -186 325 -443 399 -169 49 -131 56 -605 -117 l-423 -154 0 152 0 152 43 16 c62 24 800 287 803 287 2 0 5 -66 6 -147 l3 -148 68 138 c123 249 197 523 184 686 -11 133 -63 245 -143 306 -20 15 -96 55 -168 87 -72 33 -280 133 -463 223 l-332 163 -3 94 -3 93 -186 2 -186 2 -404 207 c-3358 1719 -7030 3692 -8497 4563 -147 87 -331 193 -409 235 -704 380 -1610 664 -2473 776 -47 6 -95 13 -106 15 -18 4 -27 24 -53 119 -172 624 -414 1032 -696 1172 -95 47 -165 64 -265 64 -61 0 -103 -7 -150 -23z m891 -2075 c492 -113 883 -401 1201 -887 73 -110 196 -339 212 -392 l7 -23 -2636 0 -2636 0 87 128 c447 655 882 1094 1178 1188 33 10 290 12 1266 11 1221 -3 1225 -3 1321 -25z m4639 -2625 l585 -233 3 -1367 c2 -1223 0 -1367 -13 -1367 -19 0 -1074 108 -1132 115 l-43 6 0 1540 c0 846 3 1539 8 1539 4 -1 270 -105 592 -233z m1475 -586 l500 -199 3 -1161 2 -1161 -27 0 c-28 0 -854 84 -945 96 l-48 6 0 1309 c0 720 3 1309 8 1309 4 0 232 -90 507 -199z m1403 -558 l492 -196 0 -959 0 -959 -32 5 c-18 3 -238 26 -488 51 -250 25 -465 48 -477 50 l-23 5 0 1106 c0 1049 1 1106 18 1100 9 -4 239 -95 510 -203z m1385 -551 l497 -197 0 -754 0 -754 -42 6 c-24 3 -256 27 -515 53 l-473 48 0 904 c0 857 1 904 18 898 9 -3 241 -95 515 -204z m-11658 110 c560 -88 1030 -290 1475 -636 134 -104 393 -361 500 -495 335 -425 555 -913 639 -1421 28 -174 33 -221 38 -436 13 -507 -69 -923 -270 -1371 -151 -337 -363 -641 -636 -914 -334 -334 -708 -572 -1151 -732 -69 -25 -139 -48 -155 -52 -17 -3 17 12 75 33 540 199 989 530 1324 977 296 394 479 837 553 1340 28 190 25 603 -5 795 -83 524 -276 970 -594 1373 -102 129 -344 370 -468 467 -424 328 -905 528 -1437 596 -172 22 -504 22 -678 0 -659 -84 -1228 -361 -1689 -822 -469 -469 -754 -1067 -827 -1734 -16 -153 -14 -471 5 -625 95 -763 469 -1436 1060 -1907 226 -181 523 -351 764 -438 34 -13 60 -25 58 -28 -10 -10 -241 84 -411 168 -722 356 -1273 971 -1549 1733 -123 340 -178 660 -179 1047 -1 506 99 937 319 1379 99 199 175 323 305 496 516 688 1294 1130 2159 1224 47 5 211 8 365 6 220 -2 308 -7 410 -23z m13039 -657 l506 -200 0 -547 c0 -542 0 -548 -20 -548 -11 0 -238 23 -505 50 -267 28 -489 50 -495 50 -7 0 -10 236 -10 701 0 434 4 699 9 697 6 -1 237 -93 515 -203z m1406 -559 l485 -192 3 -347 2 -346 -32 5 c-18 2 -233 25 -478 49 -245 25 -462 48 -482 51 l-38 6 0 493 0 494 28 -10 c15 -5 245 -97 512 -203z m-18891 -1452 c257 -57 479 -264 568 -529 25 -73 27 -93 27 -235 0 -144 -1 -161 -27 -235 -82 -235 -242 -404 -467 -493 -64 -26 -182 -52 -192 -43 -5 5 -38 112 -82 272 l-16 56 -47 7 c-58 7 -140 53 -177 97 -15 17 -38 54 -52 81 -81 160 -95 471 -29 617 31 66 55 94 110 126 l40 24 -9 126 c-5 69 -6 128 -4 130 3 3 38 9 79 14 87 10 189 5 278 -15z m8477 1 c234 -53 425 -208 530 -430 53 -114 74 -207 74 -335 0 -135 -21 -224 -83 -350 -45 -93 -62 -116 -146 -201 -84 -84 -109 -102 -201 -148 -126 -62 -216 -83 -360 -82 -352 1 -653 232 -752 577 -32 112 -32 296 0 407 90 314 346 538 662 577 78 10 193 4 276 -15z m10901 -412 c-2 -2 -2257 -822 -5012 -1823 l-5007 -1820 -4014 0 -4014 0 0 165 0 165 3958 0 3957 1 5065 1808 5065 1809 3 -150 c1 -83 1 -152 -1 -155z" fill="#e91e63"/>
</g>
</svg>