<svg xmlns="http://www.w3.org/2000/svg" version="1.0" viewBox="0 0 2600.000000 2600.000000" preserveAspectRatio="xMidYMid meet">
<metadata fill="#e91e63">
Created by potrace 1.15, written by Peter Selinger 2001-2017
</metadata>
<g transform="translate(0.000000,2600.000000) scale(0.100000,-0.100000)" fill="#e91e63" stroke="none">
<path d="M9120 17262 l0 -4609 383 -6 c210 -4 626 -7 925 -7 l542 0 0 145 c0 109 3 145 13 145 37 1 360 29 363 32 3 3 34 350 34 382 0 6 -27 28 -60 47 -72 41 -66 15 -80 373 -35 910 20 2131 156 3421 49 469 122 1050 140 1115 74 266 233 483 498 680 460 340 1246 619 2246 796 384 68 511 81 725 72 381 -14 1090 -54 1390 -78 60 -4 111 -8 112 -7 5 6 -59 1213 -65 1218 -7 6 -7257 890 -7299 889 l-23 0 0 -4608z" fill="#e91e63"/>
<path d="M7148 20548 l-1778 -1221 0 -3327 0 -3327 758 -7 c416 -3 1219 -9 1785 -12 l1027 -7 0 4562 c0 2508 -3 4561 -7 4561 -5 0 -808 -550 -1785 -1222z" fill="#e91e63"/>
<path d="M14604 19641 c-1100 -166 -1987 -460 -2464 -817 -99 -74 -223 -195 -285 -276 -85 -113 -148 -265 -160 -390 -4 -34 -24 -207 -46 -383 -172 -1407 -258 -2825 -229 -3795 5 -195 10 -374 10 -397 0 -41 1 -43 70 -84 84 -50 79 -7 45 -409 -14 -162 -25 -297 -25 -301 0 -3 -51 -9 -112 -13 -62 -3 -143 -9 -180 -13 l-68 -6 0 -153 c0 -133 -2 -154 -16 -154 -12 0 -14 -8 -9 -42 3 -24 19 -164 35 -312 17 -148 31 -270 33 -271 1 -1 47 -10 102 -20 365 -64 742 -238 1064 -492 115 -91 311 -286 405 -403 177 -221 369 -555 484 -840 180 -449 291 -958 344 -1580 14 -172 18 -940 5 -1153 l-7 -128 26 -24 c81 -75 427 -148 1144 -241 634 -82 822 -94 1465 -94 l420 -1 1723 157 1722 157 163 -51 c515 -165 830 -205 1252 -161 415 44 873 213 1120 414 40 32 42 32 225 49 102 9 253 18 335 21 567 15 921 270 1031 742 35 151 35 159 -82 3373 -62 1713 -118 3167 -124 3230 -5 63 -19 208 -31 321 l-22 207 26 33 c43 58 317 503 317 516 0 27 16 11 32 -32 25 -67 86 -153 128 -181 58 -39 100 -41 165 -10 103 51 155 147 155 286 0 93 -38 371 -65 481 -45 182 -110 323 -182 400 -25 27 -51 49 -58 49 -9 0 -14 50 -18 188 -6 216 -23 315 -72 419 -83 177 -224 249 -512 260 -124 5 -368 -7 -458 -23 -30 -5 -31 -4 -75 97 -92 209 -245 465 -379 631 -67 83 -215 228 -278 271 -34 24 -85 37 -364 92 -2369 469 -5182 804 -7384 879 -131 5 -174 2 -341 -23z m141 -1011 c143 -69 242 -267 265 -530 10 -111 94 -3399 88 -3406 -4 -3 -3117 1052 -3123 1058 -4 4 164 2340 169 2345 7 8 2363 562 2402 565 65 5 150 -8 199 -32z m2387 -87 c149 -7 134 12 144 -180 l7 -132 -229 -3 -229 -3 -40 26 c-101 67 -268 117 -420 126 -178 10 -429 -42 -562 -118 l-53 -29 0 144 0 144 103 7 c302 23 1004 32 1279 18z m377 -20 c0 -5 -7 -24 -14 -43 l-13 -35 -1 43 c-1 31 3 42 14 42 8 0 15 -3 14 -7z m1779 -138 c548 -59 1250 -148 1817 -231 807 -117 2037 -322 2056 -341 4 -5 43 -105 87 -223 304 -818 488 -1549 569 -2260 23 -198 24 -823 2 -935 l-14 -70 -95 -21 c-303 -67 -784 -119 -1330 -145 -308 -14 -1241 -14 -1630 0 -1401 52 -3001 188 -4608 391 -217 28 -400 50 -408 50 -12 0 -14 76 -14 517 l0 516 188 -6 c103 -4 264 -16 357 -27 331 -40 627 -38 800 6 211 54 368 203 419 399 16 64 46 343 46 434 0 42 5 60 22 78 20 21 20 24 5 41 -14 16 -17 42 -17 163 0 79 -4 250 -9 379 -6 129 -13 357 -16 506 -6 260 -5 271 14 295 l20 24 33 -31 c94 -89 308 -145 476 -124 156 20 307 89 544 247 185 124 249 174 292 226 42 52 56 86 56 138 0 21 2 39 5 39 3 0 153 -16 333 -35z m-1988 -653 l0 -79 -102 -6 c-57 -4 -141 -14 -188 -22 -47 -8 -88 -15 -92 -15 -5 0 -8 45 -8 100 l0 100 195 0 195 0 0 -78z m6749 -227 c95 -23 135 -55 176 -140 34 -72 45 -176 45 -435 0 -184 -3 -235 -16 -265 -25 -61 -36 -200 -25 -325 8 -100 7 -121 -11 -194 -11 -44 -31 -106 -45 -136 -35 -81 -234 -403 -243 -393 -4 4 -19 87 -34 183 -94 603 -270 1306 -421 1682 -5 13 0 18 27 23 153 26 435 27 547 0z m-6735 -352 c7 -89 11 -491 5 -497 -2 -2 -34 -6 -71 -10 l-66 -6 -16 47 c-17 51 -52 94 -102 130 -42 30 -166 70 -239 78 -33 3 -75 8 -93 11 l-34 5 45 28 c57 37 85 77 112 164 l23 71 98 18 c160 29 205 35 270 37 l61 1 7 -77z m-1306 -311 l182 -7 -47 -35 c-97 -72 -139 -188 -130 -355 13 -219 83 -466 168 -594 l23 -34 -26 6 c-14 4 -122 11 -239 17 -117 6 -213 11 -213 13 -1 1 0 230 2 508 l3 506 47 -9 c26 -6 129 -13 230 -16z m1287 -674 c-4 -35 -16 -90 -26 -123 -18 -60 -75 -162 -85 -152 -3 3 1 41 10 84 8 43 18 114 22 158 3 44 8 83 11 88 2 4 20 7 40 7 l35 0 -7 -62z" fill="#e91e63"/>
<path d="M4089 18446 l-864 -593 -3 -2581 -2 -2581 -53 -4 c-28 -2 148 -4 393 -5 245 -1 712 -5 1038 -9 l592 -6 0 3186 0 3187 -119 0 -118 0 -864 -594z" fill="#e91e63"/>
<path d="M2377 17271 c-334 -230 -612 -422 -616 -427 -9 -9 -118 -4140 -110 -4147 2 -3 313 -7 692 -10 l687 -5 0 2504 0 2504 -22 0 c-13 -1 -284 -180 -631 -419z" fill="#e91e63"/>
<path d="M1645 12499 c-6 -8 23 -350 30 -357 3 -3 141 -14 308 -25 166 -10 303 -20 304 -21 1 -1 -8 -29 -22 -61 -57 -143 -60 -185 -60 -855 l0 -615 27 -100 c15 -55 46 -137 68 -181 89 -181 201 -210 325 -84 l49 49 17 -40 c27 -59 112 -143 171 -169 75 -32 152 -30 218 6 29 16 60 38 70 51 l18 23 6 -39 c9 -56 104 -142 231 -207 143 -74 193 -88 279 -81 150 13 291 66 561 210 230 124 268 140 309 131 16 -3 86 -31 154 -61 157 -68 243 -93 479 -138 218 -42 273 -56 523 -137 249 -80 371 -108 511 -115 l117 -6 18 29 c10 16 44 60 76 98 90 108 93 119 90 278 -3 150 2 171 55 219 36 34 112 83 118 77 2 -2 -2 -53 -11 -114 -21 -148 -30 -597 -15 -762 45 -489 186 -907 408 -1210 194 -265 436 -426 748 -498 96 -23 337 -26 430 -6 324 70 573 246 730 515 27 47 29 48 64 42 63 -12 261 -75 400 -127 398 -149 689 -299 996 -514 229 -161 354 -214 507 -214 81 0 140 20 241 83 109 68 146 84 156 68 5 -8 32 -109 61 -225 119 -483 198 -639 471 -931 313 -335 572 -498 900 -565 210 -43 548 -21 822 55 328 90 511 204 710 443 84 100 179 233 172 240 -3 3 -81 25 -173 48 -299 75 -713 210 -922 299 l-75 32 0 69 c0 38 7 183 14 322 25 459 6 1002 -49 1422 -175 1318 -760 2223 -1664 2575 -203 79 -414 125 -578 125 l-87 0 -6 43 c-3 23 -26 224 -50 446 -25 223 -47 406 -49 409 -3 3 -3711 26 -8669 54 -291 2 -531 0 -532 -3z m752 -1176 c15 -49 18 -96 18 -303 0 -250 -10 -335 -41 -361 -66 -54 -90 541 -29 688 8 18 19 33 24 33 6 0 18 -26 28 -57z m407 -64 c29 -95 38 -217 34 -418 -5 -210 -23 -321 -59 -363 l-19 -23 -19 23 c-42 49 -56 158 -56 422 1 254 12 349 51 408 22 33 50 13 68 -49z m539 -128 c41 -102 52 -197 52 -461 0 -162 -5 -279 -12 -320 -50 -260 -119 -275 -169 -36 -31 148 -34 534 -4 683 37 186 91 240 133 134z m4224 -678 c130 -73 242 -342 295 -708 17 -120 17 -560 0 -680 -60 -417 -192 -695 -347 -734 -104 -26 -194 35 -279 190 -242 440 -229 1417 24 1808 36 56 92 115 128 135 52 30 115 26 179 -11z m5055 -883 c280 -86 522 -503 603 -1040 23 -151 31 -529 15 -687 -48 -482 -224 -900 -455 -1081 -407 -320 -865 88 -1004 893 -72 413 -42 895 79 1258 42 124 127 300 191 393 92 133 237 247 345 273 67 16 158 12 226 -9z" fill="#e91e63"/>
</g>
</svg>