<svg xmlns="http://www.w3.org/2000/svg" version="1.0" viewBox="0 0 2600.000000 2600.000000" preserveAspectRatio="xMidYMid meet">
<metadata fill="#e91e63">
Created by potrace 1.15, written by Peter Selinger 2001-2017
</metadata>
<g transform="translate(0.000000,2600.000000) scale(0.100000,-0.100000)" fill="#e91e63" stroke="none">
<path d="M12701 19615 c-459 -104 -2320 -934 -9048 -4036 l-313 -144 0 -4357 0 -4358 940 0 940 0 2 3757 3 3758 785 361 c3403 1564 6769 3084 6828 3084 62 0 3488 -1547 6897 -3115 l720 -331 3 -3757 2 -3757 940 0 940 0 0 4358 0 4357 -868 400 c-5964 2748 -7880 3603 -8418 3760 -112 33 -261 41 -353 20z" fill="#e91e63"/>
<path d="M7172 12678 l3 -983 1238 -3 1237 -2 0 985 0 985 -1240 0 -1240 0 2 -982z" fill="#e91e63"/>
<path d="M10122 12678 l3 -983 1240 0 1240 0 3 983 2 982 -1245 0 -1245 0 2 -982z" fill="#e91e63"/>
<path d="M13072 12678 l3 -983 1240 0 1240 0 3 983 2 982 -1245 0 -1245 0 2 -982z" fill="#e91e63"/>
<path d="M7172 10238 l3 -983 1238 -3 1237 -2 0 985 0 985 -1240 0 -1240 0 2 -982z" fill="#e91e63"/>
<path d="M10122 10238 l3 -983 1240 0 1240 0 3 983 2 982 -1245 0 -1245 0 2 -982z" fill="#e91e63"/>
<path d="M13072 10238 l3 -983 1240 0 1240 0 3 983 2 982 -1245 0 -1245 0 2 -982z" fill="#e91e63"/>
<path d="M16022 10238 l3 -983 1240 0 1240 0 3 983 2 982 -1245 0 -1245 0 2 -982z" fill="#e91e63"/>
<path d="M7172 7798 l3 -983 1238 -3 1237 -2 0 985 0 985 -1240 0 -1240 0 2 -982z" fill="#e91e63"/>
<path d="M10122 7798 l3 -983 1240 0 1240 0 3 983 2 982 -1245 0 -1245 0 2 -982z" fill="#e91e63"/>
<path d="M13072 7798 l3 -983 1240 0 1240 0 3 983 2 982 -1245 0 -1245 0 2 -982z" fill="#e91e63"/>
<path d="M16022 7798 l3 -983 1240 0 1240 0 3 983 2 982 -1245 0 -1245 0 2 -982z" fill="#e91e63"/>
</g>
</svg>